<?xml version="1.0" encoding="UTF-8"?>
<svg id="Layer_1" data-name="Layer 1" xmlns="http://www.w3.org/2000/svg" version="1.1" viewBox="0 0 601.4 120">
  <defs>
    <style>
      .cls-1 {
        fill: #624cf5;
      }

      .cls-1, .cls-2, .cls-3 {
        stroke-width: 0px;
      }

      .cls-2 {
        fill: #000;
      }

      .cls-3 {
        fill: #fa776c;
      }
    </style>
  </defs>
  <path class="cls-3" d="M0,27.7c0-7.8,8.5-12.6,15.1-8.6l25.1,15.1c6,3.6,9.7,10.1,9.7,17.1v17.4c0,7-3.7,13.5-9.7,17.1l-25.1,15.1C8.5,104.9,0,100.1,0,92.3V27.7Z"/>
  <path class="cls-1" d="M103.9,0c5.3,0,8,6.4,4.3,10.2l-13.3,13.7c-3.8,3.9-9,6.1-14.4,6.1h-25c-3.6,0-7.2-1-10.3-2.9L18.6,11.1C13.4,8,15.6,0,21.7,0h82.2Z"/>
  <path class="cls-1" d="M103.9,120c5.3,0,8-6.4,4.3-10.2l-13.3-13.7c-3.8-3.9-9-6.1-14.4-6.1h-25c-3.6,0-7.2,1-10.3,2.9l-26.7,16c-5.2,3.1-3,11.1,3.1,11.1h82.2Z"/>
  <path class="cls-3" d="M71,45h0c8.3,0,15,6.7,15,15h0c0,8.3-6.7,15-15,15h0c-8.3,0-15-6.7-15-15h0c0-8.3,6.7-15,15-15Z"/>
  <path class="cls-2" d="M164.3,52.9h32.4v12.1h-32.4v-12.1ZM165.4,80.5h36.6v12.5h-52V25.8h50.8v12.5h-35.3v42.2ZM226.9,93l-21.7-51.6h15.5l18,44.4h-7.7l18.7-44.4h14.4l-21.8,51.6h-15.5ZM294.5,93.8c-5.9,0-11.1-1.2-15.6-3.5-4.4-2.3-7.8-5.4-10.3-9.4-2.4-4-3.6-8.6-3.6-13.7s1.2-9.8,3.6-13.7c2.4-4,5.7-7.2,9.9-9.4,4.2-2.3,8.9-3.5,14.1-3.5s9.6,1.1,13.6,3.3c4.1,2.1,7.3,5.2,9.7,9.2,2.4,4,3.6,8.7,3.6,14.3s0,1.2,0,2c0,.7-.1,1.4-.2,2h-42v-8.7h34.1l-5.8,2.6c0-2.7-.5-5-1.6-7-1.1-2-2.6-3.5-4.5-4.6-1.9-1.2-4.2-1.7-6.7-1.7s-4.8.6-6.8,1.7c-1.9,1.1-3.4,2.7-4.5,4.7-1.1,2-1.6,4.4-1.6,7.1v2.3c0,2.8.6,5.3,1.8,7.5,1.3,2.1,3,3.7,5.3,4.9,2.3,1.1,5,1.6,8.1,1.6s5.2-.4,7.2-1.2c2.1-.8,4-2.1,5.8-3.7l8,8.6c-2.4,2.7-5.3,4.8-8.9,6.2-3.6,1.4-7.7,2.1-12.4,2.1ZM360.8,40.6c4.1,0,7.7.8,10.9,2.5,3.3,1.6,5.8,4.1,7.7,7.5,1.9,3.3,2.8,7.6,2.8,12.9v29.6h-15v-27.3c0-4.2-.9-7.2-2.8-9.2-1.8-2-4.4-3-7.7-3s-4.5.5-6.4,1.5c-1.9,1-3.3,2.5-4.4,4.5-1,2-1.5,4.7-1.5,7.9v25.5h-15v-51.6h14.3v14.3l-2.7-4.3c1.9-3.5,4.5-6.1,8-8s7.4-2.8,11.8-2.8ZM416.9,93.8c-6.1,0-10.8-1.5-14.2-4.6-3.4-3.1-5.1-7.8-5.1-13.9V29.9h15v45.1c0,2.2.6,3.9,1.7,5.1,1.2,1.2,2.7,1.7,4.7,1.7s4.4-.6,6-1.9l4,10.6c-1.5,1.1-3.4,1.9-5.6,2.5-2.1.5-4.3.8-6.6.8ZM389.6,54v-11.5h35.8v11.5h-35.8ZM437.5,93V21.8h15v71.2h-15ZM464.5,93v-50.9h15v50.9h-15ZM464.5,36v-14.2h15v14.2h-15ZM523.2,29.7c2.2.6,4,1.4,5.6,2.5l-4,10.6c-1.7-1.3-3.7-1.9-6-1.9s-3.6.6-4.7,1.7c-1.2,1.2-1.7,2.9-1.7,5.1v45.3s-15,0-15,0v-45.5c0-6.2,1.7-10.8,5.1-14,3.4-3.1,8.1-4.6,14.2-4.6s4.5.3,6.6.8ZM488.1,61v-11.6h35.8v11.6h-35.8ZM562.4,93c-5.9,0-11.1-1.2-15.6-3.5-4.4-2.3-7.8-5.4-10.3-9.4-2.4-4-3.6-8.6-3.6-13.7s1.2-9.8,3.6-13.7c2.4-4,5.7-7.2,9.9-9.4,4.2-2.3,8.9-3.5,14.1-3.5s9.6,1.1,13.6,3.3c4.1,2.1,7.3,5.2,9.7,9.2,2.4,4,3.6,8.7,3.6,14.3s0,1.2,0,2c0,.7-.1,1.4-.2,2h-42v-8.7h34.1l-5.8,2.6c0-2.7-.5-5-1.6-7-1.1-2-2.6-3.5-4.5-4.6-1.9-1.2-4.2-1.7-6.7-1.7s-4.8.6-6.8,1.7c-1.9,1.1-3.4,2.7-4.5,4.7-1.1,2-1.6,4.4-1.6,7.1v2.3c0,2.8.6,5.3,1.8,7.5,1.3,2.1,3,3.7,5.3,4.9,2.3,1.1,5,1.6,8.1,1.6s5.2-.4,7.2-1.2c2.1-.8,4-2.1,5.8-3.7l8,8.6c-2.4,2.7-5.3,4.8-8.9,6.2-3.6,1.4-7.7,2.1-12.4,2.1Z"/>
</svg>